<?xml version="1.0" encoding="UTF-8" standalone="no"?><!-- Generator: Gravit.io --><svg xmlns="http://www.w3.org/2000/svg" xmlns:xlink="http://www.w3.org/1999/xlink" style="isolation:isolate" viewBox="0 0 300 300" width="300pt" height="300pt"><defs><clipPath id="_clipPath_DT0ZA1pZYtg7GpVWcfrDYoxRMOE4ExHU"><rect width="300" height="300"/></clipPath></defs><g clip-path="url(#_clipPath_DT0ZA1pZYtg7GpVWcfrDYoxRMOE4ExHU)"><g><path d=" M 56.163 259.636 C 36.996 243.459 32.968 208.479 44.021 154.636 C 55.71 100.839 111.73 43.402 190.021 46.266 C 106.916 21.925 42.926 73.602 20.021 137.266 C -2.979 201.141 15.396 249.141 56.163 259.636 Z " fill="rgb(232,28,39)"/><path d=" M 238.181 145.463 C 246.349 98.176 241.552 67.066 223.8 52.084 C 264.568 62.578 282.979 110.578 259.979 174.453 C 259.536 175.686 259.077 176.915 258.602 178.138 L 290.021 228.408 L 227.385 228.408 C 195.461 262.893 147.261 282.231 89.979 265.453 C 131.656 266.978 167.023 251.414 192.75 228.408 L 156.21 228.408 L 220.464 117.117 L 220.464 117.117 L 238.181 145.463 Z  M 212.752 104.777 L 165.021 28.408 L 40.021 228.408 L 141.374 228.408 L 212.752 104.777 L 212.752 104.777 Z " fill-rule="evenodd" fill="rgb(58,57,115)"/></g></g></svg>